<svg width="127" height="128" viewBox="0 0 127 128" fill="none" xmlns="http://www.w3.org/2000/svg">
<rect width="126.183" height="128" rx="20" fill="url(#paint0_linear_5_32)"/>
<mask id="mask0_5_32" style="mask-type:luminance" maskUnits="userSpaceOnUse" x="22" y="31" width="36" height="47">
<path d="M53.575 37.2251H26.1125C24.9458 37.2251 24 38.1709 24 39.3376V73.1376C24 74.3043 24.9458 75.2501 26.1125 75.2501H53.575C54.7417 75.2501 55.6875 74.3043 55.6875 73.1376V39.3376C55.6875 38.1709 54.7417 37.2251 53.575 37.2251Z" fill="white" stroke="white" stroke-width="3.9" stroke-linejoin="round"/>
<path d="M33.5062 33V39.3375M46.1812 33V39.3375" stroke="white" stroke-width="3.9" stroke-linecap="round" stroke-linejoin="round"/>
<path d="M31.3938 48.8438H48.2938M31.3938 57.2937H44.0688M31.3938 65.7437H39.8438" stroke="black" stroke-width="3.9" stroke-linecap="round" stroke-linejoin="round"/>
</mask>
<g mask="url(#mask0_5_32)">
<path d="M14.4938 28.775H65.1938V79.475H14.4938V28.775Z" fill="white"/>
</g>
<path d="M98.5 48.375C98.5 56.875 96.6042 61.1458 92.8125 61.1875C92.1458 61.1875 91.1042 60.5625 89.6875 59.3125C87.3125 57.5625 85.3125 56.625 83.6875 56.5C81.0208 56.5 79.5625 57.7708 79.3125 60.3125C79.1875 62.0208 79.9792 63.3542 81.6875 64.3125C82.5625 64.7708 83.4792 65 84.4375 65C89.1875 65 92.625 64.6458 94.75 63.9375C99.9583 62.2292 103.542 58.7292 105.5 53.4375C106.375 50.9792 106.812 48.375 106.812 45.625C106.812 37.7083 103.104 32.7083 95.6875 30.625C93.3958 29.9583 90.8958 29.625 88.1875 29.625H40.8125C36.2292 29.625 33.2708 28.6667 31.9375 26.75C31.0625 25.4167 30.625 23.4167 30.625 20.75H28C26.375 26.2083 26.3958 29.8125 28.0625 31.5625C29.7292 33.2708 32.5 34.25 36.375 34.5H60V90.9375C60 94.7708 59.7292 97.2708 59.1875 98.4375C58.6458 99.5625 57.375 100.333 55.375 100.75L51.75 101.438V104H76V101.375L71.6875 100.438C70.1458 100.104 69.1875 99.625 68.8125 99C68.4792 98.2917 68.3125 96.7708 68.3125 94.4375V34.5H88.9375C93.7708 34.5 96.7917 37.375 98 43.125C98.3333 44.75 98.5 46.5 98.5 48.375Z" fill="white"/>
<defs>
<linearGradient id="paint0_linear_5_32" x1="12.5" y1="-11" x2="127" y2="145.5" gradientUnits="userSpaceOnUse">
<stop stop-color="#7CDCFF"/>
<stop offset="1" stop-color="#153A9A"/>
</linearGradient>
</defs>
</svg>
